<?xml version="1.0" encoding="UTF-8"?>
<svg id="Toys" xmlns="http://www.w3.org/2000/svg" version="1.1" viewBox="0 0 128 128">
  <defs>
    <style>
      .cls-1 {
        fill: #000;
      }

      .cls-1, .cls-2, .cls-3 {
        stroke-width: 0px;
      }

      .cls-2, .cls-3 {
        fill: #00ffa2;
      }

      .cls-3, .cls-4 {
        display: none;
      }
    </style>
  </defs>
  <g id="row3" class="cls-4">
    <path id="icon:4" class="cls-1" d="M94.2,58.5h-.7v-5.7c0-2.2-1.8-4-4-4h-23.8v-16.5c2.2-.6,3.8-2.7,3.8-5.1s-2.4-5.3-5.3-5.3-5.3,2.4-5.3,5.3,1.6,4.5,3.8,5.1v16.5h-24.3c-2.2,0-4,1.8-4,4v5.7h-.5c-2.2,0-4,1.8-4,4v32.2c0,2.2,1.8,4,4,4h.5v3.4c0,2.2,1.8,4,4,4h51.1c2.2,0,4-1.8,4-4v-3.4h.7c2.2,0,4-1.8,4-4v-32.2c0-2.2-1.8-4-4-4ZM45,63.3c0-2.8,2.2-5,5-5s5,2.2,5,5-2.2,5-5,5-5-2.2-5-5ZM78,94.4h-1.1c0-.3,0-.6,0-.9,0-2.2-1.9-4-4.1-4-2.2,0-3.9,1.8-3.9,4.1,0,.3,0,.6.1.8h-1.2c0-.3,0-.6,0-.9,0-2.2-1.9-4-4.1-4-2.2,0-4,1.8-3.9,4.1,0,.3,0,.6.1.8h-1.2c0-.3,0-.6,0-.9,0-2.2-1.9-4-4.1-4-2.2,0-4,1.8-3.9,4.1,0,.3,0,.6.1.8h-1.1v-16.2h1.2c-.2.4-.2.9-.2,1.4,0,2.2,1.9,4,4.1,3.9,2.2,0,4-1.8,3.9-4,0-.4,0-.9-.2-1.3h1.5c-.2.4-.2.9-.2,1.4,0,2.2,1.9,4,4.1,3.9,2.2,0,3.9-1.8,3.9-4,0-.4,0-.9-.2-1.3h1.5c-.2.4-.2.9-.2,1.4,0,2.2,1.9,4,4.1,3.9,2.2,0,3.9-1.8,3.9-4,0-.4,0-.9-.2-1.3h1.2v16.2ZM78,68.3c-2.8,0-5-2.2-5-5s2.2-5,5-5,5,2.2,5,5-2.2,5-5,5Z"/>
    <path id="icon:3" class="cls-1" d="M53.3,90.5c-.6-5.5-5.2-9.8-10.9-9.8s-10.4,4.3-10.9,9.8c0,.4,0,.7,0,1.1,0,6,4.9,10.9,11,10.9s11-4.9,11-10.9c0-.4,0-.7,0-1.1ZM42.4,95.9c-2.4,0-4.4-2-4.4-4.4s2-4.4,4.4-4.4,4.4,2,4.4,4.4-2,4.4-4.4,4.4ZM109.4,90.5c-.6-5.5-5.2-9.8-10.9-9.8s-10.4,4.3-10.9,9.8c0,.4,0,.7,0,1.1,0,6,4.9,10.9,11,10.9s11-4.9,11-10.9c0-.4,0-.7,0-1.1ZM98.4,95.9c-2.4,0-4.4-2-4.4-4.4s2-4.4,4.4-4.4,4.4,2,4.4,4.4c0,2.4-2,4.4-4.4,4.4ZM116.1,76.6c0-1.8,0-3.8,0-6,0-7-5.8-12.8-12.8-12.8h-3.5c0-.5,0-1,0-1.5,0-11.8-13.5-21.3-30.2-21.3s-30,9.4-30.2,21.1l-12-12c2.8,0,6.2-1.7,9-4.5,4.4-4.4,5.8-10.2,3.1-12.9-2.7-2.7-8.5-1.3-13,3.1-2.8,2.8-4.4,6.2-4.5,8.9l-3-3-2.3,2.3,2.8,2.8c-2.7.2-5.8,1.8-8.5,4.4-4.4,4.4-5.8,10.2-3.1,12.9,2.7,2.7,8.5,1.3,13-3.1,2.7-2.6,4.2-5.8,4.4-8.5l11.1,11.1h-.4c-3.5,0-6.7,1.4-9.1,3.8-2.3,2.3-3.8,5.5-3.8,9s0,4.2,0,6h-5.4v13.5h10.5c.7-7.2,6.8-12.8,14.2-12.8s13.5,5.6,14.2,12.8h27.6c.7-7.2,6.8-12.8,14.2-12.8s13.5,5.6,14.2,12.8h8.9v-13.5h-5.4ZM29.1,32.5c1.6-1.6,4-1.9,5.3-.6,1.3,1.3,1,3.6-.6,5.2-1.6,1.6-4,1.9-5.3.6-1.3-1.3-1-3.6.6-5.2ZM18.3,52.7c-1.6,1.6-4,1.9-5.3.6-1.3-1.3-1-3.6.6-5.2,1.6-1.6,4-1.9,5.3-.6,1.3,1.3,1,3.6-.6,5.2ZM66.7,58.3h-20.9c0-7.6,9.1-16.7,20.9-16.7v16.7h0ZM72.1,58.3v-16.7c11.8,0,20.9,9.1,20.9,16.7h-20.9Z"/>
    <path id="icon:2" class="cls-1" d="M87.3,23l-17,30.9h35.3l-18.3-30.9ZM39.4,23l-17,30.9h37.3l-20.3-30.9ZM102.5,68.8v-11.1h-29.1v11.1h-18.8v-11.1h-29.1v11.1h-8v36.2h38.9v-13.6c0-4,3.3-7.2,7.3-7.2h.6c4,0,7.3,3.3,7.3,7.2v13.6h38.9v-36.2h-8ZM31.5,94.3h-7.7v-9.4c0-2.1,1.7-3.8,3.9-3.8s2,.4,2.7,1.1c.7.7,1.1,1.7,1.1,2.7,0,0,0,9.4,0,9.4ZM45.2,94.3h-7.7v-9.4c0-1.1.4-2,1.1-2.7.7-.7,1.7-1.1,2.7-1.1,2.1,0,3.9,1.7,3.9,3.8v9.4ZM88.9,94.3h-7.7v-9.4c0-2.1,1.7-3.8,3.9-3.8s2,.4,2.7,1.1c.7.7,1.1,1.7,1.1,2.7v9.4ZM102.6,94.3h-7.7v-9.4c0-1.1.4-2,1.1-2.7.7-.7,1.7-1.1,2.7-1.1,2.1,0,3.9,1.7,3.9,3.8v9.4Z"/>
    <path id="icon:1" class="cls-1" d="M104.4,67.5v-6.7h-8.7v-9.7h-3.2v9.7h-8.7v6.7c-2.6,1.4-4.8,3.2-6.7,5.4h-6.7v-11.5h-3.2l-1.7-47.9h-3l-1.7,47.9h-3.5v11.5h-6.4c-1.9-2.2-4.2-4.1-6.7-5.4v-6.7h-8.7v-9.7h-3.2v9.7h-8.7v6.7c-7.6,4.1-12.8,12.5-12.8,22.2s10.4,24.8,23.1,24.8,8.9-1.5,12.5-4h35.1c3.6,2.5,7.9,4,12.6,4,12.8,0,23.2-11.1,23.2-24.8,0-9.7-5.2-18.2-12.8-22.2ZM32.2,106.2c-8.3,0-15-6.7-15-15s6.7-15,15-15,15,6.7,15,15-6.7,15-15,15ZM74.5,96h-21v-5h21v5ZM74.5,86.3h-21v-5h21v5ZM95.2,106.2c-8.3,0-15-6.7-15-15s6.7-15,15-15,15,6.7,15,15-6.7,15-15,15ZM32.2,79.2c-6.6,0-12,5.4-12,12s5.4,12,12,12,12-5.4,12-12-5.4-12-12-12ZM37.8,96.7h-11v-11h11v11ZM95.2,79.2c-6.6,0-12,5.4-12,12s5.4,12,12,12,12-5.4,12-12-5.4-12-12-12ZM100.8,96.7h-11v-11h11v11Z"/>
  </g>
  <g id="row2" class="cls-4">
    <path id="icon:4-2" data-name="icon:4" class="cls-1" d="M110,26.5v10h-14v25.8h-4v-25.8h-25.1v43h-4v-43h-26.9v25.8h-4v-25.8h-14v-10h92ZM33.9,66.9l-7.3-5.8,2.5,9-7.8,5.2,9.3.4,2.5,9,3.3-8.8,9.3.4-7.3-5.8,3.3-8.8-7.8,5.2ZM86,72.8c0-4.4,3.6-8,8-8s8,3.6,8,8-3.6,8-8,8-8-3.6-8-8ZM80.3,96.5c0,1.8-.3,3.4-.9,5-2.1-5.8-7.6-10-14.1-10s-12.1,4.2-14.1,10c-.6-1.6-.9-3.2-.9-5,0-8.3,6.7-15,15-15s15,6.7,15,15Z"/>
    <path id="icon:3-2" data-name="icon:3" class="cls-1" d="M103,38.5H25c-5.5,0-10,4.5-10,10v31c0,5.5,4.5,10,10,10h78c5.5,0,10-4.5,10-10v-31c0-5.5-4.5-10-10-10ZM99.7,51.5c2.2,0,4,1.8,4,4s-1.8,4-4,4-4-1.8-4-4,1.8-4,4-4ZM35.3,66.5h-6.2v6.2h-5v-6.2h-6.2v-5h6.2v-6.2h5v6.2h6.2v5ZM87,81h-50v-34h50v34ZM92.2,67c-2.2,0-4-1.8-4-4s1.8-4,4-4,4,1.8,4,4-1.8,4-4,4ZM99.7,74.5c-2.2,0-4-1.8-4-4s1.8-4,4-4,4,1.8,4,4-1.8,4-4,4ZM107.2,67c-2.2,0-4-1.8-4-4s1.8-4,4-4,4,1.8,4,4-1.8,4-4,4Z"/>
    <path id="icon:2-2" data-name="icon:2" class="cls-1" d="M64.8,102h-16.7v-20.1c-11.9-3.6-20.2-14.7-20.2-27.3s12.8-28.6,28.5-28.6,28.5,12.8,28.5,28.6-8.2,23.7-20.2,27.3v20.1ZM51.2,99h10.7v-19.4l1.1-.3c5-1.3,9.4-4.1,12.7-7.8h-38.2c3.3,3.7,7.6,6.5,12.7,7.8l1.1.3v19.4h0ZM91,84c-5,0-9,4-9,9s4,9,9,9,9-4,9-9-4-9-9-9Z"/>
    <path id="icon:1-2" data-name="icon:1" class="cls-1" d="M92,29v10.5h-8v-2.8c0-2-1.6-3.8-3.6-3.7-.9,0-1.7.4-2.3,1-.6.6-1,1.5-1,2.5v3h-4v-2.8c0-2-1.6-3.8-3.6-3.7-.9,0-1.7.4-2.3,1-.6.6-1,1.5-1,2.5v3h-4v-2.8c0-2-1.6-3.8-3.6-3.7-.9,0-1.7.4-2.3,1-.6.6-1,1.5-1,2.5v3h-4v-3c0-1-.4-1.8-1-2.5-.6-.6-1.4-1-2.3-1-2,0-3.6,1.7-3.6,3.7v2.8h-8v-10.5c0-1.7-1.3-3-3-3h0c-1.7,0-3,1.3-3,3v70c0,1.7,1.3,3,3,3h0c1.7,0,3-1.3,3-3v-15.5h4v2.9c0,1.7,1.1,3.2,2.8,3.5,2.2.5,4.2-1.3,4.2-3.4v-3h4v2.8c0,2,1.6,3.8,3.6,3.7.9,0,1.7-.4,2.3-1,.6-.6,1-1.5,1-2.5v-3h34v15.5c0,1.7,1.3,3,3,3h0c1.7,0,3-1.3,3-3V29c0-1.7-1.3-3-3-3h0c-1.7,0-3,1.3-3,3ZM92,79.5h-34v-3c0-1.9-1.6-3.5-3.5-3.5s-1.8.4-2.5,1c-.6.6-1,1.5-1,2.5v3h-4v-3c0-1-.4-1.8-1-2.5-.6-.6-1.5-1-2.5-1-1.9,0-3.5,1.6-3.5,3.5v3h-4v-16h30v3c0,1.9,1.6,3.5,3.5,3.5s1.8-.4,2.5-1c.6-.6,1-1.5,1-2.5v-3h4v3c0,1.9,1.6,3.5,3.5,3.5s1.8-.4,2.5-1c.6-.6,1-1.5,1-2.5v-3h8v16ZM92,59.5h-8v-3c0-1.9-1.6-3.5-3.5-3.5s-1.8.4-2.5,1c-.6.6-1,1.5-1,2.5v3h-4v-3c0-1.9-1.6-3.5-3.5-3.5s-1.8.4-2.5,1c-.6.6-1,1.5-1,2.5v3h-30v-16h8v3c0,1.9,1.6,3.5,3.5,3.5s3.5-1.6,3.5-3.5v-3h4v3c0,1.9,1.6,3.5,3.5,3.5s1.8-.4,2.5-1c.6-.6,1-1.5,1-2.5v-3h4v3c0,1.9,1.6,3.5,3.5,3.5s1.8-.4,2.5-1c.6-.6,1-1.5,1-2.5v-3h4v3c0,1.9,1.6,3.5,3.5,3.5s1.8-.4,2.5-1c.6-.6,1-1.5,1-2.5v-3h8v16Z"/>
  </g>
  <g id="row1">
    <path id="icon:3-3" data-name="icon:3" class="cls-3" d="M57,93.2h14l-6.6,8-7.4-8ZM55.1,90.8h18.4l4.5-5h-28l5.1,5ZM48.9,83.8h30.7l4.4-5h-40l4.9,5ZM42.4,76.8h43.7l4.4-5h-53l4.9,5ZM96.5,52.8h-2.5c-1.6-6-12.1-10.7-25.3-11.5v-2.2c1.9-1.2,3.1-3.3,3.1-5.6,0-3.7-3.1-6.7-6.9-6.7s-6.9,3-6.9,6.7,1.2,4.4,3.1,5.6v2.2c-13.2.8-23.7,5.5-25.3,11.5h-4.3c-2.8,0-5,2.2-5,4.9v2.4c0,2.7,2.3,4.9,5,4.9l4.2,4.5h57l3.7-4.5c2.8,0,5-2.2,5-4.9v-2.4c0-2.7-2.3-4.9-5-4.9Z"/>
    <path id="icon:3-4" data-name="icon:3" class="cls-2" d="M92.2,44.5c-.4,0-.7,0-1.1,0h-21v-4.5h-12.3v4.5h-21c-12.1,0-21.9,9.7-21.9,21.8s9.8,21.8,21.9,21.8,12.6-2.9,16.6-7.6h21c4,4.6,10,7.6,16.6,7.6,12.1,0,21.9-9.7,21.9-21.8s-9.2-21.2-20.8-21.7ZM45.5,69.7h-5.5v5.5h-7.6v-5.5h-5.5v-7.6h5.5v-5.5h7.6v5.5h5.5v7.6ZM62.6,53.5c0,.7-.6,1.2-1.2,1.2h-5.7c-.7,0-1.2-.6-1.2-1.2v-1c0-.7.6-1.2,1.2-1.2h5.7c.7,0,1.2.6,1.2,1.2v1ZM73.7,53.5c0,.7-.6,1.2-1.2,1.2h-5.7c-.7,0-1.2-.6-1.2-1.2v-1c0-.7.6-1.2,1.2-1.2h5.7c.7,0,1.2.6,1.2,1.2v1ZM81.8,69.7c-2.1,0-3.8-1.7-3.8-3.8s1.7-3.8,3.8-3.8,3.8,1.7,3.8,3.8-1.7,3.8-3.8,3.8ZM91.1,79c-2.1,0-3.8-1.7-3.8-3.8s1.7-3.8,3.8-3.8,3.8,1.7,3.8,3.8-1.7,3.8-3.8,3.8ZM91.1,60.5c-2.1,0-3.8-1.7-3.8-3.8s1.7-3.8,3.8-3.8,3.8,1.7,3.8,3.8-1.7,3.8-3.8,3.8ZM100.4,69.7c-2.1,0-3.8-1.7-3.8-3.8s1.7-3.8,3.8-3.8,3.8,1.7,3.8,3.8-1.7,3.8-3.8,3.8Z"/>
    <path id="icon:2-3" data-name="icon:2" class="cls-3" d="M102,38.4c-4.2,2.5-11.1,1-15.7-.5-1.9-9.7-10.2-16.9-20.2-16.9s-20.6,9.4-20.6,21,4.1,14.4,10.1,18.1c3.1,1.8-2.5,12.5-25.8-9.3-1.3-1.3-19.2,28.4,5.7,47.8,23.7,18.4,50.8,3.2,54.5-12,4.1-16.7-12.4-27.1-11.5-27.8,1.3-1,2.5-2.2,3.6-3.6,3,0,7.3-.5,12.6-1.9,10.6-2.9,13.9-18.8,7.2-14.8ZM75.9,81.6c-.7,6-6.7,11.7-15.3,10.6-17.6-2.2-18.8-16.5-18.8-16.5,0,0,7.7,5.3,22-4.7,6.8-4.8,13,3.3,12.1,10.6ZM74.1,43c-2.1,0-3.8-1.8-3.8-4s1.7-4,3.8-4,3.8,1.8,3.8,4c0,2.2-1.7,4-3.8,4Z"/>
    <path id="icon:1-3" data-name="icon:1" class="cls-3" d="M88.6,85.9c-4.6-.9-9.1,2.9-10.2,8.4-1,5.5,1.8,10.7,6.4,11.6,4.6.9,9.1-2.9,10.2-8.4,1-5.5-1.8-10.7-6.4-11.6ZM48.6,94.3c-1-5.5-5.6-9.3-10.2-8.4-4.6.9-7.4,6-6.4,11.6,1,5.5,5.6,9.3,10.2,8.4,4.6-.9,7.4-6,6.4-11.6ZM102,65.8l-1.1-2.2c-1.1-2.2-3.8-3.1-6-2l-11.5,5.8c-.3-.4-.8-.9-1.3-1.4,6.4-4.4,10.5-11.1,10.5-18.6s-.5-5.1-1.4-7.4c2.9-1.6,4.9-4.8,4.9-8.4,0-5.3-4.2-9.5-9.3-9.5s-6.5,1.9-8.1,4.7c-4.4-2.2-9.5-3.5-14.9-3.5s-9.8,1.1-13.9,3c-1.7-2.6-4.5-4.2-7.8-4.2-5.2,0-9.4,4.3-9.4,9.5s1.5,6,3.9,7.8c-1.1,2.5-1.7,5.3-1.7,8.1,0,7.3,3.9,13.8,9.9,18.2-.5.4-1.1.9-1.4,1.3l-10.5-5.3c-2.2-1.1-4.9-.2-6,2l-1.1,2.2c-1.1,2.2-.2,4.9,2,6l10.6,5.3c0,.5-2,4.1-1.8,5.3.3,0,.7-.2,1-.2,6.4-1.2,12.8,3.9,14.2,11.4.2,1,.3,2,.3,3,0,2.3-.5,4.5-1.4,6.3,3.2,1.6,8.7,2.5,12.5,2.5s9.5-1,12.8-2.7c-1.2-2.7-1.6-5.9-1-9.2,1.4-7.5,7.8-12.6,14.2-11.4.2,0,.4,0,.6.1.2-1.2-1.8-4.2-1.8-4.5l12-6c2.2-1.1,3.1-3.8,2-6ZM50.4,39.3c0-1.7,1.4-3.2,3.1-3.2s3.1,1.4,3.1,3.2-1.4,3.1-3.1,3.1-3.1-1.4-3.1-3.1ZM64.1,65c-6.7,0-12.2-4.7-12.2-10.4s2.2-6.9,5.6-8.8c.4,3.7,3.2,6.5,6.4,6.5s6.1-2.9,6.4-6.6c3.5,1.8,5.8,5.1,5.8,8.9,0,5.7-5.4,10.4-12.2,10.4ZM75.4,42.5c-1.7,0-3.1-1.4-3.1-3.1s1.4-3.2,3.1-3.2,3.1,1.4,3.1,3.2-1.4,3.1-3.1,3.1ZM70.9,55.7c0,3-3.1,5.4-7,5.4s-7-2.4-7-5.4h1c0,2.3,2.4,4.2,5.5,4.4v-6h1v6c3.1-.2,5.5-2.1,5.5-4.4h1Z"/>
  </g>
</svg>